<?xml version="1.0" encoding="UTF-8"?><svg id="Layer_2" xmlns="http://www.w3.org/2000/svg" viewBox="0 0 367.24 94.94"><defs><style>.cls-1{fill:#fbc414;}.cls-2{fill:#2f3d6f;}.cls-3{fill:#313c70;}</style></defs><g id="Layer_1-2"><g><g><path class="cls-3" d="M135.65,57.42c0-9.97,.22-19.24,.38-24.26h-.08c-1.36,8.19-6.31,32.28-9.54,47.71h-3.12c-2.48-12.88-7.66-38.92-8.94-47.71h-.15c.15,5.83,.45,17.35,.45,25.98v21.73h-2.89V30.28h4.25c3.6,17.1,8.24,39.87,8.92,45.65h.08c.76-5.42,5.78-29.6,9.31-45.65h4.32v50.6h-2.98v-23.45Z"/><path class="cls-3" d="M149.32,62.05l-3.08,18.82h-2.91l8.48-50.6h4.24l8.85,50.6h-3.07l-3.23-18.82h-9.28Zm8.82-2.68c-2.4-13.75-3.83-22.82-4.21-26.65h-.15c-.15,3.65-2.26,15.59-3.99,26.65h8.35Z"/><path class="cls-3" d="M169.76,80.87V30.28h3.75c3.45,11.64,11.51,39.75,12.64,45.36h.15c-.23-7.4-.38-14.52-.38-22.7V30.28h2.9v50.6h-3.67c-3.81-13.02-11.59-40.97-13.01-46.94h-.08c.3,6.06,.6,15.4,.6,24.56v22.38h-2.9Z"/><path class="cls-3" d="M199.63,30.28v40.18c0,4.67,1.73,8.28,6.32,8.28s6.31-3.02,6.31-8.2V30.28h2.99v40.03c0,7.66-3.41,11.17-9.38,11.17s-9.15-3.5-9.15-10.95V30.28h2.91Z"/><path class="cls-3" d="M226.89,32.95h-8.25v-2.68h19.27v2.68h-8.11v47.92h-2.91V32.95Z"/><path class="cls-3" d="M256.43,54.95h-11.58v23.24h12.95l-.47,2.68h-15.39V30.28h15.17v2.68h-12.26v19.33h11.58v2.68Z"/><path class="cls-3" d="M262.62,80.87V30.28h3.75c3.45,11.64,11.51,39.75,12.64,45.36h.15c-.23-7.4-.38-14.52-.38-22.7V30.28h2.9v50.6h-3.67c-3.81-13.02-11.59-40.97-13.01-46.94h-.08c.3,6.06,.6,15.4,.6,24.56v22.38h-2.9Z"/><path class="cls-3" d="M293.49,38.92h-7.36v-8.6h24.48v8.6h-7.41v41.95h-9.71V38.92Z"/><path class="cls-3" d="M334.15,58.55h-10.42v13.78h12.22l-1.17,8.55h-20.78V30.33h20.71v8.6h-10.97v11.08h10.42v8.55Z"/><path class="cls-3" d="M339.42,30.33h9.42v22.02h.16c1.6-4.76,4.92-15.1,7.2-22.02h10.72l-8.48,19.57,8.8,30.98h-10.52l-4.99-21.32-2.89,6.45v14.87h-9.42V30.33Z"/></g><path class="cls-2" d="M93.99,27.25c0-1.07-.35-1.61-1.25-2.1-9.85-5.45-19.6-11.07-29.48-16.46-5.16-2.81-10.31-5.65-15.46-8.49-.41-.23-.76-.28-1.2-.04-3.34,1.83-6.7,3.63-10.05,5.46-5.8,3.17-11.61,6.33-17.39,9.55-6.22,3.46-12.41,6.97-18.62,10.44C.1,25.84,0,26.12,0,26.56c0,18.24,.02,36.48,0,54.72,0,.76,.27,1.2,.92,1.55,2.39,1.3,4.76,2.65,7.14,3.98,.22,.12,.43,.28,.71,.18,0-3.91-.02-12.73-.02-12.73,0,0,31.38,16.97,37.9,20.51,.39,.21,.73,.24,1.14,.02,5.64-3.11,37.54-20.53,37.54-20.53,0,0,0,2.27,0,12.69,.24,0,.42-.14,.62-.25,2.16-1.2,4.3-2.45,6.51-3.56,1.1-.55,1.54-1.18,1.54-2.47-.05-17.81-.05-35.62-.01-53.43Z"/><g><path class="cls-1" d="M41.15,38.22c.59,.39,2.68,1.45,3.43,1.82,.39,.19,.58,.28,.6-.2,.02-.55-.01-3.89-.01-4.45,0-5.63,0-.27,0-5.9h0c0-2.75,0-5.51,0-8.26,0-3.01-.01-6.01-.02-9.02,0-1.05-.25-1.21-1.19-.71-.83,.43-1.62,.94-2.45,1.34-.73,.35-.98,.83-.98,1.65,0,9.42,.08,13.03-.06,22.45-.01,.86,.07,.88,.68,1.28Z"/><path class="cls-1" d="M51.09,37.98c.23,.09,2.29-.95,3.8-1.84,.57-.34,.53-1.73,.53-2.38-.02-4.57,0-.14,0-4.71,0-4.62,0-9.24,.01-13.86,0-.55-.16-.87-.64-1.14-.94-.54-1.88-1.08-2.85-1.56-1.01-.5-1.01-.51-1.02,.65,0,.1,0,.2,0,.3,0,10.38-.01,10.75-.01,21.13,0,.96,0,1.92,.02,2.88,0,.19-.05,.45,.17,.54Z"/><path class="cls-1" d="M30.44,31.82c0,.09,0,.5,.15,.62,.66,.54,3.45,1.89,3.45,1.89,0,0,.79,.48,.83-.28,.16-3.33-.01-3.27,.05-6.22,0-3.76,0-7.14,0-10.52,0-.57-.12-.83-.74-.48-1.07,.62-2.15,1.21-3.24,1.79-.45,.24-.54,.6-.54,1.06,.01,4.52,.04,7.62,.04,12.13Z"/><path class="cls-1" d="M61.54,32.5c1.31-.62,2.62-1.4,3.78-1.99,.22-.11,.23-.38,.23-.62,0-4.37,.01-5.1,.02-9.47,0-.34-.11-.58-.41-.74-1.06-.58-2.13-1.16-3.18-1.76-.59-.34-.71-.14-.71,.47,.02,3.11,.01,12.81,.03,13.72,.01,.31-.03,.42,.23,.4Z"/><path class="cls-1" d="M19.58,26.52c1.48,.88,2.44,1.41,4.1,2.21,.14,.07,.9,.47,.96-.44,.06-.96-.02-4.17,0-5.1,.01-.59-.2-.71-.73-.47-1.19,.56-3.02,1.58-4.16,2.22-.6,.26-1.18,1.01-.17,1.57Z"/><path class="cls-1" d="M71.43,27.14c0,.27,.08,.36,.4,.28,1.31-.66,2.09-.94,3.16-1.68,.28-.35,.19-.58-.19-.77-.96-.5-1.92-1-2.87-1.51-.46-.25-.51-.01-.5,.36,0,.81,0,1.61,0,2.42h.02c0,.83-.03,.07-.03,.9Z"/><path class="cls-1" d="M85.35,87.05s-.04-51.46-.03-56.27c0-.38-.14-.59-.46-.77-.71-.39-35.4,18.79-37.29,20.81-.39,.42-.66,.44-1.03,0-.41-.48-36.14-21.53-37.34-20.84-.32,.18-.44,.43-.44,.8,.02,4.81-.08,56.27-.08,56.27l11.59,6.53V53.94c10.57,6.21,25.1,14.63,26.52,16.23,.29,.32,.52,.34,.8,0,1.37-1.64,15.6-10.3,26.18-16.6v40l11.59-6.53Z"/></g></g></g></svg>